<!DOCTYPE svg PUBLIC "-//W3C//DTD SVG 1.1//EN" "http://www.w3.org/Graphics/SVG/1.1/DTD/svg11.dtd">
<!-- Uploaded to: SVG Repo, www.svgrepo.com, Transformed by: SVG Repo Mixer Tools -->
<svg version="1.1" id="Layer_1" xmlns="http://www.w3.org/2000/svg" xmlns:xlink="http://www.w3.org/1999/xlink" viewBox="0 0 502 502" xml:space="preserve" width="800px" height="800px" fill="#000000">
<g id="SVGRepo_bgCarrier" stroke-width="0"/>
<g id="SVGRepo_tracerCarrier" stroke-linecap="round" stroke-linejoin="round"/>
<g id="SVGRepo_iconCarrier"> <g> <path style="fill:#45e87e;" d="M461,397H41c-17.121,0-31-13.879-31-31V136c0-17.121,13.879-31,31-31h420c17.121,0,31,13.879,31,31 v230C492,383.121,478.121,397,461,397z"/> <rect x="10" y="149" style="fill:#FFF9E6;" width="482" height="50"/> <g> <path d="M0,366c0,22.607,18.393,41,41,41h420c22.607,0,41-18.393,41-41V136c0-22.607-18.393-41-41-41H41 c-22.607,0-41,18.393-41,41V366z M41,115h420c11.58,0,21,9.42,21,21v3H20v-3C20,124.42,29.42,115,41,115z M482,189H20v-30h462V189 z M461,387H41c-11.58,0-21-9.42-21-21V209h462v157C482,377.58,472.58,387,461,387z"/> <path d="M242,263H67c-5.523,0-10,4.477-10,10s4.477,10,10,10h175c5.523,0,10-4.477,10-10S247.523,263,242,263z"/> <path d="M178,310H67c-5.523,0-10,4.477-10,10s4.477,10,10,10h111c5.523,0,10-4.477,10-10S183.523,310,178,310z"/> <path d="M242,310h-27c-5.523,0-10,4.477-10,10s4.477,10,10,10h27c5.523,0,10-4.477,10-10S247.523,310,242,310z"/> </g> </g> </g>
</svg>